STARTFONT 2.1
COMMENT Edited by pv 30May12
COMMENT This font is still under development.
COMMENT You can use, copy, modify, distribute this file for free.
COMMENT
COMMENT This font was created by modifying fg-20.bdf distributed with
COMMENT X.V11R3 under the directory contrib/fonts/bdf/oldx11.
COMMENT The comment below is the original one.
COMMENT -------------------------------------------------------------
COMMENT the Lisp Machine name for this font was "20fg.ast"
COMMENT -------------------------------------------------------------
COMMENT 91.12.14 modified by K.Handa <handa@etl.go.jp>
COMMENT   - ISO8859-1 Latin-1 glyphs are added.
COMMENT This font is very suitable when used with:
COMMENT   -jis-fixed-medium-r-normal--24-230-75-75-c-240-jisx0208.1983-0
COMMENT 92.06.23 modified by Takahashi N. <ntakahas@etl.go.jp>
COMMENT 92.07.09 modified by Takahashi N. <ntakahas@etl.go.jp>
COMMENT   - all BBX are changed to 12 24 0 -2
COMMENT 93.02.04 modified by Takahashi N. <ntakahas@etl.go.jp>
COMMENT   -  Latin-1 glyphs are replaced by Hebrew glyphs.
COMMENT 93.04.28 modified by Takahashi N. <ntakahas@etl.go.jp>
COMMENT   -  Hebrew glyphs become taller by 2 dots.
COMMENT 94.09.14 modified by Takahashi N. <ntakahas@etl.go.jp>
FONT -Etl-Fixed-Medium-R-Normal--24-240-72-72-C-120-ISO8859-8
SIZE 24 72 72
FONTBOUNDINGBOX 12 24 0 -2
STARTPROPERTIES 11
FOUNDRY "ETL"
FAMILY_NAME "Fixed"
WEIGHT_NAME "Medium"
SLANT "R"
SETWIDTH_NAME "Normal"
SPACING "c"
CHARSET_REGISTRY "ISO-8859"
CHARSET_ENCODING "1"
COPYRIGHT "Designer of this font retains full rights under the law"
FONT_ASCENT  22
FONT_DESCENT 2
ENDPROPERTIES
CHARS 153
STARTCHAR SPACE
ENCODING 32
SWIDTH 500 0
DWIDTH 12 0
BBX 0 0 0 0
BITMAP
ENDCHAR
STARTCHAR EXCLAMATION MARK
ENCODING 33
SWIDTH 500 0
DWIDTH 12 0
BBX 4 15 4 2
BITMAP
60
60
60
60
60
60
60
60
60
60
00
00
60
f0
60
ENDCHAR
STARTCHAR QUOTATION MARK
ENCODING 34
SWIDTH 500 0
DWIDTH 12 0
BBX 6 5 3 13
BITMAP
cc
cc
cc
cc
cc
ENDCHAR
STARTCHAR NUMBER SIGN
ENCODING 35
SWIDTH 500 0
DWIDTH 12 0
BBX 10 14 1 3
BITMAP
1980
1980
1980
7fc0
7fc0
3300
3300
3300
3300
ff80
ff80
6600
6600
6600
ENDCHAR
STARTCHAR DOLLAR SIGN
ENCODING 36
SWIDTH 500 0
DWIDTH 12 0
BBX 10 14 1 3
BITMAP
0c00
3f00
7fc0
ccc0
cc00
7c00
3f00
0f80
0cc0
0cc0
ccc0
ff80
7f00
0c00
ENDCHAR
STARTCHAR PERCENT SIGN
ENCODING 37
SWIDTH 500 0
DWIDTH 12 0
BBX 10 14 1 3
BITMAP
7180
f980
db00
fb00
7600
0600
0c00
0c00
1800
1b80
37c0
36c0
67c0
6380
ENDCHAR
STARTCHAR AMPERSAND
ENCODING 38
SWIDTH 500 0
DWIDTH 12 0
BBX 10 14 1 3
BITMAP
0e00
1f00
3b80
3180
3300
1f00
3e00
7c00
e6c0
c3c0
c380
c300
7fc0
3cc0
ENDCHAR
STARTCHAR APOSTROPHE
ENCODING 39
SWIDTH 500 0
DWIDTH 12 0
BBX 4 7 4 12
BITMAP
60
f0
f0
30
30
60
c0
ENDCHAR
STARTCHAR LEFT PARENTHESIS
ENCODING 40
SWIDTH 500 0
DWIDTH 12 0
BBX 5 14 4 3
BITMAP
18
30
70
60
e0
c0
c0
c0
c0
e0
60
70
30
18
ENDCHAR
STARTCHAR RIGHT PARENTHESIS
ENCODING 41
SWIDTH 500 0
DWIDTH 12 0
BBX 5 14 3 3
BITMAP
c0
60
70
30
38
18
18
18
18
38
30
70
60
c0
ENDCHAR
STARTCHAR ASTERISK
ENCODING 42
SWIDTH 500 0
DWIDTH 12 0
BBX 10 11 1 4
BITMAP
0c00
0c00
ccc0
edc0
3f00
0c00
3f00
edc0
ccc0
0c00
0c00
ENDCHAR
STARTCHAR PLUS SIGN
ENCODING 43
SWIDTH 500 0
DWIDTH 12 0
BBX 10 10 1 4
BITMAP
0c00
0c00
0c00
0c00
ffc0
ffc0
0c00
0c00
0c00
0c00
ENDCHAR
STARTCHAR COMMA
ENCODING 44
SWIDTH 500 0
DWIDTH 12 0
BBX 4 7 4 0
BITMAP
60
f0
f0
30
30
60
c0
ENDCHAR
STARTCHAR HYPHEN, MINUS SIGN
ENCODING 45
SWIDTH 500 0
DWIDTH 12 0
BBX 10 2 1 8
BITMAP
ffc0
ffc0
ENDCHAR
STARTCHAR FULL STOP
ENCODING 46
SWIDTH 500 0
DWIDTH 12 0
BBX 4 4 4 3
BITMAP
60
f0
f0
60
ENDCHAR
STARTCHAR SOLIDUS
ENCODING 47
SWIDTH 500 0
DWIDTH 12 0
BBX 8 14 2 3
BITMAP
03
03
06
06
0c
0c
18
18
30
30
60
60
c0
c0
ENDCHAR
STARTCHAR DIGIT ZERO
ENCODING 48
SWIDTH 500 0
DWIDTH 12 0
BBX 8 14 2 3
BITMAP
3c
7e
e7
c3
c7
cf
db
f3
e3
c3
c3
e7
7e
3c
ENDCHAR
STARTCHAR DIGIT ONE
ENCODING 49
SWIDTH 500 0
DWIDTH 12 0
BBX 8 14 2 3
BITMAP
18
38
78
d8
18
18
18
18
18
18
18
18
ff
ff
ENDCHAR
STARTCHAR DIGIT TWO
ENCODING 50
SWIDTH 500 0
DWIDTH 12 0
BBX 9 14 2 3
BITMAP
3e00
7f00
c380
c180
0180
0300
0600
0c00
1800
3000
6000
c000
ff80
ff80
ENDCHAR
STARTCHAR DIGIT THREE
ENCODING 51
SWIDTH 500 0
DWIDTH 12 0
BBX 9 14 2 3
BITMAP
3e00
7f00
c380
c180
0180
0300
1e00
1f00
0180
0180
c180
c380
7f00
3e00
ENDCHAR
STARTCHAR DIGIT FOUR
ENCODING 52
SWIDTH 500 0
DWIDTH 12 0
BBX 9 14 2 3
BITMAP
0c00
0c00
1800
1800
3600
3600
6600
6600
c600
ff80
ff80
0600
0600
0600
ENDCHAR
STARTCHAR DIGIT FIVE
ENCODING 53
SWIDTH 500 0
DWIDTH 12 0
BBX 9 14 2 3
BITMAP
ff00
ff00
c000
c000
c000
fe00
ff00
0380
0180
0180
c180
c380
7f00
3e00
ENDCHAR
STARTCHAR DIGIT SIX
ENCODING 54
SWIDTH 500 0
DWIDTH 12 0
BBX 9 14 2 3
BITMAP
3e00
7f00
e180
c180
c000
de00
ff00
e380
c180
c180
c180
e380
7f00
3e00
ENDCHAR
STARTCHAR DIGIT SEVEN
ENCODING 55
SWIDTH 500 0
DWIDTH 12 0
BBX 9 14 2 3
BITMAP
ff80
ff80
0300
0300
0600
0600
0c00
0c00
1800
1800
3000
3000
6000
6000
ENDCHAR
STARTCHAR DIGIT EIGHT
ENCODING 56
SWIDTH 500 0
DWIDTH 12 0
BBX 10 14 1 3
BITMAP
1e00
3f00
6180
6180
6180
3f00
3f00
7380
e1c0
c0c0
c0c0
e1c0
7f80
3f00
ENDCHAR
STARTCHAR DIGIT NINE
ENCODING 57
SWIDTH 500 0
DWIDTH 12 0
BBX 9 14 2 3
BITMAP
3e00
7f00
e380
c180
c180
e380
7f80
3d80
0180
0180
c180
c380
7f00
3e00
ENDCHAR
STARTCHAR COLON
ENCODING 58
SWIDTH 500 0
DWIDTH 12 0
BBX 4 11 4 3
BITMAP
60
f0
f0
60
00
00
00
60
f0
f0
60
ENDCHAR
STARTCHAR SEMICOLON
ENCODING 59
SWIDTH 500 0
DWIDTH 12 0
BBX 4 14 4 0
BITMAP
60
f0
f0
60
00
00
00
60
f0
f0
30
30
60
c0
ENDCHAR
STARTCHAR LESS-THAN SIGN
ENCODING 60
SWIDTH 500 0
DWIDTH 12 0
BBX 10 10 1 4
BITMAP
00c0
0380
0e00
3c00
f000
f000
3c00
0f00
0380
00c0
ENDCHAR
STARTCHAR EQUALS SIGN
ENCODING 61
SWIDTH 500 0
DWIDTH 12 0
BBX 10 6 1 6
BITMAP
ffc0
ffc0
0000
0000
ffc0
ffc0
ENDCHAR
STARTCHAR GREATER-THAN SIGN
ENCODING 62
SWIDTH 500 0
DWIDTH 12 0
BBX 10 10 1 4
BITMAP
c000
7000
1c00
0f00
03c0
03c0
0f00
1c00
7000
c000
ENDCHAR
STARTCHAR QUESTION MARK
ENCODING 63
SWIDTH 500 0
DWIDTH 12 0
BBX 8 15 2 2
BITMAP
3c
7e
e7
83
03
06
0c
18
18
18
00
00
18
3c
18
ENDCHAR
STARTCHAR COMMERCIAL AT
ENCODING 64
SWIDTH 500 0
DWIDTH 12 0
BBX 9 14 2 3
BITMAP
3e00
7f00
e180
c180
cf80
df80
d980
d980
d980
df80
cf00
e000
7f80
3f80
ENDCHAR
STARTCHAR CAPITAL LETTER A
ENCODING 65
SWIDTH 500 0
DWIDTH 12 0
BBX 9 14 2 3
BITMAP
3e00
7f00
e380
c180
c180
c180
ff80
ff80
c180
c180
c180
c180
c180
c180
ENDCHAR
STARTCHAR CAPITAL LETTER B
ENCODING 66
SWIDTH 500 0
DWIDTH 12 0
BBX 9 14 2 3
BITMAP
fc00
fe00
c700
c300
c300
c600
fe00
ff00
c300
c180
c180
c380
ff00
fe00
ENDCHAR
STARTCHAR CAPITAL LETTER C
ENCODING 67
SWIDTH 500 0
DWIDTH 12 0
BBX 9 14 2 3
BITMAP
3e00
7f00
e380
c180
c000
c000
c000
c000
c000
c000
c180
e380
7f00
3e00
ENDCHAR
STARTCHAR CAPITAL LETTER D
ENCODING 68
SWIDTH 500 0
DWIDTH 12 0
BBX 9 14 2 3
BITMAP
fe00
ff00
c380
c180
c180
c180
c180
c180
c180
c180
c180
c380
ff00
fe00
ENDCHAR
STARTCHAR CAPITAL LETTER E
ENCODING 69
SWIDTH 500 0
DWIDTH 12 0
BBX 9 14 2 3
BITMAP
ff80
ff80
c000
c000
c000
c000
fe00
fe00
c000
c000
c000
c000
ff80
ff80
ENDCHAR
STARTCHAR CAPITAL LETTER F
ENCODING 70
SWIDTH 500 0
DWIDTH 12 0
BBX 9 14 2 3
BITMAP
ff80
ff80
c000
c000
c000
c000
fe00
fe00
c000
c000
c000
c000
c000
c000
ENDCHAR
STARTCHAR CAPITAL LETTER G
ENCODING 71
SWIDTH 500 0
DWIDTH 12 0
BBX 9 14 2 3
BITMAP
3e00
7f00
e380
c180
c000
c000
c000
c780
c780
c180
c180
e380
7f00
3e00
ENDCHAR
STARTCHAR CAPITAL LETTER H
ENCODING 72
SWIDTH 500 0
DWIDTH 12 0
BBX 9 14 2 3
BITMAP
c180
c180
c180
c180
c180
c180
ff80
ff80
c180
c180
c180
c180
c180
c180
ENDCHAR
STARTCHAR CAPITAL LETTER I
ENCODING 73
SWIDTH 500 0
DWIDTH 12 0
BBX 6 14 3 3
BITMAP
fc
fc
30
30
30
30
30
30
30
30
30
30
fc
fc
ENDCHAR
STARTCHAR CAPITAL LETTER J
ENCODING 74
SWIDTH 500 0
DWIDTH 12 0
BBX 9 14 2 3
BITMAP
0180
0180
0180
0180
0180
0180
0180
0180
0180
0180
c180
c380
7f00
3e00
ENDCHAR
STARTCHAR CAPITAL LETTER K
ENCODING 75
SWIDTH 500 0
DWIDTH 12 0
BBX 9 14 2 3
BITMAP
c180
c300
c600
cc00
d800
f000
e000
f000
d800
cc00
c600
c300
c180
c080
ENDCHAR
STARTCHAR CAPITAL LETTER L
ENCODING 76
SWIDTH 500 0
DWIDTH 12 0
BBX 9 14 2 3
BITMAP
c000
c000
c000
c000
c000
c000
c000
c000
c000
c000
c000
c000
ff80
ff80
ENDCHAR
STARTCHAR CAPITAL LETTER M
ENCODING 77
SWIDTH 500 0
DWIDTH 12 0
BBX 9 14 2 3
BITMAP
c180
e380
e380
f780
ff80
dd80
dd80
c980
c180
c180
c180
c180
c180
c180
ENDCHAR
STARTCHAR CAPITAL LETTER N
ENCODING 78
SWIDTH 500 0
DWIDTH 12 0
BBX 9 14 2 3
BITMAP
c180
e180
e180
f180
f180
d980
d980
cd80
cd80
c780
c780
c380
c380
c180
ENDCHAR
STARTCHAR CAPITAL LETTER O
ENCODING 79
SWIDTH 500 0
DWIDTH 12 0
BBX 9 14 2 3
BITMAP
3e00
7f00
e380
c180
c180
c180
c180
c180
c180
c180
c180
e380
7f00
3e00
ENDCHAR
STARTCHAR CAPITAL LETTER P
ENCODING 80
SWIDTH 500 0
DWIDTH 12 0
BBX 9 14 2 3
BITMAP
fe00
ff00
c380
c180
c180
c380
ff00
fe00
c000
c000
c000
c000
c000
c000
ENDCHAR
STARTCHAR CAPITAL LETTER Q
ENCODING 81
SWIDTH 500 0
DWIDTH 12 0
BBX 10 15 2 2
BITMAP
3e00
7f00
e380
c180
c180
c180
c180
c180
c180
c180
c780
e780
7f00
3fc0
00c0
ENDCHAR
STARTCHAR CAPITAL LETTER R
ENCODING 82
SWIDTH 500 0
DWIDTH 12 0
BBX 9 14 2 3
BITMAP
fe00
ff00
c380
c180
c180
c380
ff00
fe00
c600
c600
c300
c300
c180
c180
ENDCHAR
STARTCHAR CAPITAL LETTER S
ENCODING 83
SWIDTH 500 0
DWIDTH 12 0
BBX 9 14 2 3
BITMAP
3e00
7f00
c380
c180
c000
e000
7e00
3f00
0380
0180
c180
c380
ff00
7e00
ENDCHAR
STARTCHAR CAPITAL LETTER T
ENCODING 84
SWIDTH 500 0
DWIDTH 12 0
BBX 10 14 1 3
BITMAP
ffc0
ffc0
0c00
0c00
0c00
0c00
0c00
0c00
0c00
0c00
0c00
0c00
0c00
0c00
ENDCHAR
STARTCHAR CAPITAL LETTER U
ENCODING 85
SWIDTH 500 0
DWIDTH 12 0
BBX 9 14 2 3
BITMAP
c180
c180
c180
c180
c180
c180
c180
c180
c180
c180
c180
e380
7f00
3e00
ENDCHAR
STARTCHAR CAPITAL LETTER V
ENCODING 86
SWIDTH 500 0
DWIDTH 12 0
BBX 10 14 1 3
BITMAP
c0c0
c0c0
c0c0
6180
6180
6180
3300
3300
3300
1200
1e00
1e00
0c00
0c00
ENDCHAR
STARTCHAR CAPITAL LETTER W
ENCODING 87
SWIDTH 500 0
DWIDTH 12 0
BBX 9 14 2 3
BITMAP
c180
c180
c180
c180
c180
c180
c980
dd80
dd80
f780
f780
e380
e380
c180
ENDCHAR
STARTCHAR CAPITAL LETTER X
ENCODING 88
SWIDTH 500 0
DWIDTH 12 0
BBX 9 14 2 3
BITMAP
c180
c180
6300
6300
3600
3600
1c00
1c00
3600
3600
6300
6300
c180
c180
ENDCHAR
STARTCHAR CAPITAL LETTER Y
ENCODING 89
SWIDTH 500 0
DWIDTH 12 0
BBX 10 14 1 3
BITMAP
c0c0
c0c0
6180
6180
3300
3f00
1e00
0c00
0c00
0c00
0c00
0c00
0c00
0c00
ENDCHAR
STARTCHAR CAPITAL LETTER Z
ENCODING 90
SWIDTH 500 0
DWIDTH 12 0
BBX 10 14 1 3
BITMAP
ffc0
ffc0
00c0
01c0
0380
0700
0e00
1c00
3800
7000
e000
c000
ffc0
ffc0
ENDCHAR
STARTCHAR LEFT SQUARE BRACKET
ENCODING 91
SWIDTH 500 0
DWIDTH 12 0
BBX 5 15 4 3
BITMAP
f8
f8
c0
c0
c0
c0
c0
c0
c0
c0
c0
c0
c0
f8
f8
ENDCHAR
STARTCHAR REVERSE SOLIDUS
ENCODING 92
SWIDTH 500 0
DWIDTH 12 0
BBX 8 14 2 3
BITMAP
c0
c0
60
60
30
30
18
18
0c
0c
06
06
03
03
ENDCHAR
STARTCHAR RIGHT SQUARE BRACKET
ENCODING 93
SWIDTH 500 0
DWIDTH 12 0
BBX 5 15 3 3
BITMAP
f8
f8
18
18
18
18
18
18
18
18
18
18
18
f8
f8
ENDCHAR
STARTCHAR CIRCUMFLEX ACCENT
ENCODING 94
SWIDTH 500 0
DWIDTH 12 0
BBX 9 5 2 13
BITMAP
0800
1c00
3600
6300
c180
ENDCHAR
STARTCHAR LOW LINE
ENCODING 95
SWIDTH 500 0
DWIDTH 12 0
BBX 12 2 0 0
BITMAP
fff0
fff0
ENDCHAR
STARTCHAR GRAVE ACCENT
ENCODING 96
SWIDTH 500 0
DWIDTH 12 0
BBX 4 7 4 12
BITMAP
30
60
c0
c0
f0
f0
60
ENDCHAR
STARTCHAR SMALL LETTER a
ENCODING 97
SWIDTH 500 0
DWIDTH 12 0
BBX 9 11 2 3
BITMAP
1e00
3f00
6180
0180
1f80
7f80
c180
c380
c780
fd80
7980
ENDCHAR
STARTCHAR SMALL LETTER b
ENCODING 98
SWIDTH 500 0
DWIDTH 12 0
BBX 9 14 2 3
BITMAP
c000
c000
c000
c000
ce00
df00
f380
e180
c180
c180
e180
f380
df00
ce00
ENDCHAR
STARTCHAR SMALL LETTER c
ENCODING 99
SWIDTH 500 0
DWIDTH 12 0
BBX 9 10 2 3
BITMAP
3f00
7f00
e180
c180
c000
c000
c000
e180
7f80
3f00
ENDCHAR
STARTCHAR SMALL LETTER d
ENCODING 100
SWIDTH 500 0
DWIDTH 12 0
BBX 9 14 2 3
BITMAP
0180
0180
0180
0180
3d80
7f80
e380
c180
c180
c180
c380
c780
7d80
3980
ENDCHAR
STARTCHAR SMALL LETTER e
ENCODING 101
SWIDTH 500 0
DWIDTH 12 0
BBX 9 10 2 3
BITMAP
3e00
7f00
e180
c180
ff80
ff80
c000
c180
7f80
3f00
ENDCHAR
STARTCHAR SMALL LETTER f
ENCODING 102
SWIDTH 500 0
DWIDTH 12 0
BBX 6 14 3 3
BITMAP
1c
3c
30
30
30
fc
fc
30
30
30
30
30
30
30
ENDCHAR
STARTCHAR SMALL LETTER g
ENCODING 103
SWIDTH 500 0
DWIDTH 12 0
BBX 9 15 2 -2
BITMAP
3980
7d80
e780
c380
c180
c180
c180
e380
7f80
3d80
0180
0180
0180
3f00
1e00
ENDCHAR
STARTCHAR SMALL LETTER h
ENCODING 104
SWIDTH 500 0
DWIDTH 12 0
BBX 9 14 2 3
BITMAP
c000
c000
c000
c000
ce00
df00
f380
e180
c180
c180
c180
c180
c180
c180
ENDCHAR
STARTCHAR SMALL LETTER i
ENCODING 105
SWIDTH 500 0
DWIDTH 12 0
BBX 2 14 5 3
BITMAP
c0
c0
00
00
c0
c0
c0
c0
c0
c0
c0
c0
c0
c0
ENDCHAR
STARTCHAR SMALL LETTER j
ENCODING 106
SWIDTH 500 0
DWIDTH 12 0
BBX 5 18 2 -1
BITMAP
18
18
00
00
18
18
18
18
18
18
18
18
18
18
18
18
f8
e0
ENDCHAR
STARTCHAR SMALL LETTER k
ENCODING 107
SWIDTH 500 0
DWIDTH 12 0
BBX 8 13 2 3
BITMAP
c0
c0
c3
c7
ce
dc
f8
f0
f8
dc
ce
c7
c3
ENDCHAR
STARTCHAR SMALL LETTER l
ENCODING 108
SWIDTH 500 0
DWIDTH 12 0
BBX 4 14 5 3
BITMAP
c0
c0
c0
c0
c0
c0
c0
c0
c0
c0
c0
c0
f0
70
ENDCHAR
STARTCHAR SMALL LETTER m
ENCODING 109
SWIDTH 500 0
DWIDTH 12 0
BBX 10 11 1 3
BITMAP
c000
db80
ffc0
ccc0
ccc0
ccc0
ccc0
ccc0
ccc0
ccc0
ccc0
ENDCHAR
STARTCHAR SMALL LETTER n
ENCODING 110
SWIDTH 500 0
DWIDTH 12 0
BBX 9 10 2 3
BITMAP
ce00
df00
f180
e180
c180
c180
c180
c180
c180
c180
ENDCHAR
STARTCHAR SMALL LETTER o
ENCODING 111
SWIDTH 500 0
DWIDTH 12 0
BBX 9 10 2 3
BITMAP
3e00
7f00
e380
c180
c180
c180
c180
e380
7f00
3e00
ENDCHAR
STARTCHAR SMALL LETTER p
ENCODING 112
SWIDTH 500 0
DWIDTH 12 0
BBX 9 14 2 -1
BITMAP
ce00
df00
f380
e180
c180
c180
e180
f380
df00
ce00
c000
c000
c000
c000
ENDCHAR
STARTCHAR SMALL LETTER q
ENCODING 113
SWIDTH 500 0
DWIDTH 12 0
BBX 9 14 2 -1
BITMAP
3980
7d80
e780
c380
c180
c180
c380
e780
7d80
3980
0180
0180
0180
0180
ENDCHAR
STARTCHAR SMALL LETTER r
ENCODING 114
SWIDTH 500 0
DWIDTH 12 0
BBX 9 10 2 3
BITMAP
ce00
df00
f180
e180
c000
c000
c000
c000
c000
c000
ENDCHAR
STARTCHAR SMALL LETTER s
ENCODING 115
SWIDTH 500 0
DWIDTH 12 0
BBX 9 10 2 3
BITMAP
7f00
ff80
c080
c000
7e00
3f00
0180
c180
ff80
7f00
ENDCHAR
STARTCHAR SMALL LETTER t
ENCODING 116
SWIDTH 500 0
DWIDTH 12 0
BBX 6 13 3 3
BITMAP
30
30
30
fc
fc
30
30
30
30
30
30
3c
1c
ENDCHAR
STARTCHAR SMALL LETTER u
ENCODING 117
SWIDTH 500 0
DWIDTH 12 0
BBX 9 10 2 3
BITMAP
c180
c180
c180
c180
c180
c180
c380
e780
7d80
3980
ENDCHAR
STARTCHAR SMALL LETTER v
ENCODING 118
SWIDTH 500 0
DWIDTH 12 0
BBX 10 10 1 3
BITMAP
c0c0
c0c0
6180
6180
3300
3300
1e00
1e00
0c00
0c00
ENDCHAR
STARTCHAR SMALL LETTER w
ENCODING 119
SWIDTH 500 0
DWIDTH 12 0
BBX 9 10 2 3
BITMAP
c180
c180
c180
c180
c980
dd80
dd80
f780
e380
c180
ENDCHAR
STARTCHAR SMALL LETTER x
ENCODING 120
SWIDTH 500 0
DWIDTH 12 0
BBX 9 10 2 3
BITMAP
c180
c180
6300
3600
1c00
1c00
3600
6300
c180
c180
ENDCHAR
STARTCHAR SMALL LETTER y
ENCODING 121
SWIDTH 500 0
DWIDTH 12 0
BBX 9 15 2 -2
BITMAP
c180
c180
c180
c180
c180
c180
c180
c380
7f80
3d80
0180
0180
0180
7f00
3e00
ENDCHAR
STARTCHAR SMALL LETTER z
ENCODING 122
SWIDTH 500 0
DWIDTH 12 0
BBX 9 10 2 3
BITMAP
ff80
ff80
0300
0600
0c00
1800
3000
6000
ff80
ff80
ENDCHAR
STARTCHAR LEFT CURLY BRACKET
ENCODING 123
SWIDTH 500 0
DWIDTH 12 0
BBX 6 15 3 3
BITMAP
1c
30
30
30
30
30
60
e0
60
30
30
30
30
30
1c
ENDCHAR
STARTCHAR VERTICAL LINE
ENCODING 124
SWIDTH 500 0
DWIDTH 12 0
BBX 2 22 5 -1
BITMAP
c0
c0
c0
c0
c0
c0
c0
c0
c0
c0
c0
c0
c0
c0
c0
c0
c0
c0
c0
c0
c0
c0
ENDCHAR
STARTCHAR RIGHT CURLY BRACKET
ENCODING 125
SWIDTH 500 0
DWIDTH 12 0
BBX 6 15 3 3
BITMAP
e0
30
30
30
30
30
18
1c
18
30
30
30
30
30
e0
ENDCHAR
STARTCHAR TILDE
ENCODING 126
SWIDTH 500 0
DWIDTH 12 0
BBX 10 4 1 14
BITMAP
3840
7cc0
4fc0
c380
ENDCHAR
STARTCHAR NO-BREAK SPACE
ENCODING 160
SWIDTH 500 0
DWIDTH 12 0
BBX 0 0 0 0
BITMAP
ENDCHAR
STARTCHAR CENT SIGN
ENCODING 162
SWIDTH 500 0
DWIDTH 12 0
BBX 9 14 2 3
BITMAP
0c00
0c00
3e00
7f00
ed80
cd80
cc00
cc00
cd80
ed80
7f00
3e00
0c00
0c00
ENDCHAR
STARTCHAR POUND SIGN
ENCODING 163
SWIDTH 500 0
DWIDTH 12 0
BBX 9 14 2 3
BITMAP
1e00
3f00
7300
6000
6000
7000
ff00
ff00
3000
3000
7e00
ff00
e380
c180
ENDCHAR
STARTCHAR CURRENCY SIGN
ENCODING 164
SWIDTH 500 0
DWIDTH 12 0
BBX 10 10 1 5
BITMAP
c0c0
edc0
7f80
3300
6180
6180
3300
7f80
edc0
c0c0
ENDCHAR
STARTCHAR YEN SIGN
ENCODING 165
SWIDTH 500 0
DWIDTH 12 0
BBX 8 14 2 3
BITMAP
c3
e7
66
7e
3c
ff
ff
18
ff
ff
18
18
18
18
ENDCHAR
STARTCHAR BROKEN BAR
ENCODING 166
SWIDTH 500 0
DWIDTH 12 0
BBX 2 22 5 -1
BITMAP
c0
c0
c0
c0
c0
c0
c0
c0
c0
c0
00
00
c0
c0
c0
c0
c0
c0
c0
c0
c0
c0
ENDCHAR
STARTCHAR PARAGRAPH SIGN
ENCODING 167
SWIDTH 500 0
DWIDTH 12 0
BBX 9 16 2 2
BITMAP
3e00
7f00
e380
c180
e000
7e00
7f00
c180
c180
7f00
3f00
0380
c180
e380
7f00
3e00
ENDCHAR
STARTCHAR DIAERESIS
ENCODING 168
SWIDTH 500 0
DWIDTH 12 0
BBX 7 2 3 19
BITMAP
c6
c6
ENDCHAR
STARTCHAR COPYRIGHT SIGN
ENCODING 169
SWIDTH 500 0
DWIDTH 12 0
BBX 9 17 2 3
BITMAP
3e00
7f00
e380
c180
dd80
ff80
f380
e180
e180
e180
f380
ff80
dd80
c180
e380
7f00
3e00
ENDCHAR
STARTCHAR MULTIPLICATION SIGN
ENCODING 170
SWIDTH 500 0
DWIDTH 12 0
BBX 9 9 2 5
BITMAP
c180
e380
7700
3e00
1c00
3e00
7700
e380
c180
ENDCHAR
STARTCHAR LEFT ANGLE QUOTATION MARK
ENCODING 171
SWIDTH 500 0
DWIDTH 12 0
BBX 9 16 2 2
BITMAP
0d80
1b00
1b00
3600
3600
6c00
6c00
d800
d800
6c00
6c00
3600
3600
1b00
1b00
0d80
ENDCHAR
STARTCHAR NOT SIGN
ENCODING 172
SWIDTH 500 0
DWIDTH 12 0
BBX 10 5 1 6
BITMAP
ffc0
ffc0
00c0
00c0
00c0
ENDCHAR
STARTCHAR SOFT HYPHEN
ENCODING 173
SWIDTH 500 0
DWIDTH 12 0
BBX 10 2 1 8
BITMAP
ffc0
ffc0
ENDCHAR
STARTCHAR REGISTERED TRADE MARK SIGN
ENCODING 174
SWIDTH 500 0
DWIDTH 12 0
BBX 9 17 2 3
BITMAP
3e00
7f00
e380
c180
fd80
ff80
e380
e380
ff80
fd80
ed80
e780
e780
c180
e380
7f00
3e00
ENDCHAR
STARTCHAR LINE ABOVE
ENCODING 175
SWIDTH 500 0
DWIDTH 12 0
BBX 10 2 1 20
BITMAP
ffc0
ffc0
ENDCHAR
STARTCHAR DEGREE SIGN
ENCODING 176
SWIDTH 500 0
DWIDTH 12 0
BBX 5 4 4 18
BITMAP
70
d8
d8
70
ENDCHAR
STARTCHAR PLUS-MINUS SIGN
ENCODING 177
SWIDTH 500 0
DWIDTH 12 0
BBX 8 12 2 4
BITMAP
18
18
18
ff
ff
18
18
18
00
00
ff
ff
ENDCHAR
STARTCHAR SUPERSCRIPT TWO
ENCODING 178
SWIDTH 500 0
DWIDTH 12 0
BBX 7 10 3 12
BITMAP
7c
fe
c6
0e
1c
38
70
e0
fe
fe
ENDCHAR
STARTCHAR SUPERSCRIPT THREE
ENCODING 179
SWIDTH 500 0
DWIDTH 12 0
BBX 7 10 3 12
BITMAP
7c
fe
c6
06
3e
3e
06
c6
fe
7c
ENDCHAR
STARTCHAR ACUTE ACCENT
ENCODING 180
SWIDTH 500 0
DWIDTH 12 0
BBX 4 3 4 19
BITMAP
30
70
c0
ENDCHAR
STARTCHAR MICRO SIGN
ENCODING 181
SWIDTH 500 0
DWIDTH 12 0
BBX 9 15 2 -2
BITMAP
1980
1980
1980
1980
3b00
3300
3300
3f80
7f80
6180
6000
e000
c000
c000
c000
ENDCHAR
STARTCHAR PILCROW SIGN
ENCODING 182
SWIDTH 500 0
DWIDTH 12 0
BBX 9 14 2 3
BITMAP
3f80
7e80
fe80
fe80
fe80
fe80
7e80
3e80
0280
0280
0280
0280
0280
0380
ENDCHAR
STARTCHAR MIDDLE DOT
ENCODING 183
SWIDTH 500 0
DWIDTH 12 0
BBX 4 4 4 8
BITMAP
60
f0
f0
60
ENDCHAR
STARTCHAR CEDILLA
ENCODING 184
SWIDTH 500 0
DWIDTH 12 0
BBX 5 6 4 -2
BITMAP
60
60
70
18
f8
f0
ENDCHAR
STARTCHAR SUPERSCRIPT ONE
ENCODING 185
SWIDTH 500 0
DWIDTH 12 0
BBX 6 10 3 12
BITMAP
30
70
f0
30
30
30
30
30
fc
fc
ENDCHAR
STARTCHAR DIVISION SIGN
ENCODING 186
SWIDTH 500 0
DWIDTH 12 0
BBX 9 16 2 2
BITMAP
3e00
7f00
e380
c180
e000
7e00
7f00
c180
c180
7f00
3f00
0380
c180
e380
7f00
3e00
ENDCHAR
STARTCHAR RIGHT ANGLE QUOTATION MARK
ENCODING 187
SWIDTH 500 0
DWIDTH 12 0
BBX 9 16 2 2
BITMAP
d800
6c00
6c00
3600
3600
1b00
1b00
0d80
0d80
1b00
1b00
3600
3600
6c00
6c00
d800
ENDCHAR
STARTCHAR VULGAR FRACTION ONE QUARTER
ENCODING 188
SWIDTH 500 0
DWIDTH 12 0
BBX 10 19 1 1
BITMAP
3000
7000
3000
3000
3000
30c0
79c0
7b80
0700
0e00
1c00
3980
7380
e780
cd80
0fc0
0fc0
0180
0180
ENDCHAR
STARTCHAR VULGAR FRACTION ONE HALF
ENCODING 189
SWIDTH 500 0
DWIDTH 12 0
BBX 10 19 1 1
BITMAP
3000
7000
3000
3000
3000
30c0
79c0
7b80
0700
0e00
1c00
3b80
77c0
e6c0
c0c0
0180
0300
07c0
07c0
ENDCHAR
STARTCHAR VULGAR FRACTION THREE QUARTERS
ENCODING 190
SWIDTH 500 0
DWIDTH 12 0
BBX 10 19 1 1
BITMAP
7800
7c00
0c00
3800
3800
0cc0
7dc0
7b80
0700
0e00
1c00
3980
7380
e780
cd80
0fc0
0fc0
0180
0180
ENDCHAR
STARTCHAR DOUBLE LOW LINE
ENCODING 223
SWIDTH 500 0
DWIDTH 12 0
BBX 9 5 2 1
BITMAP
ff80
ff80
0000
ff80
ff80
ENDCHAR
STARTCHAR HEBREW LETTER ALEPH
ENCODING 224
SWIDTH 500 0
DWIDTH 12 0
BBX 9 12 2 3
BITMAP
c780
c780
e180
6180
3180
3f00
6c00
c600
c300
c380
e180
e180
ENDCHAR
STARTCHAR HEBREW LETTER BET
ENCODING 225
SWIDTH 500 0
DWIDTH 12 0
BBX 9 13 2 3
BITMAP
8000
fe00
ff00
0300
0300
0300
0300
0300
0300
0300
0300
ff80
ff80
ENDCHAR
STARTCHAR HEBREW LETTER GIMEL
ENCODING 226
SWIDTH 500 0
DWIDTH 12 0
BBX 8 12 2 3
BITMAP
78
7c
0c
0c
0c
0c
0c
1e
3e
73
e3
c3
ENDCHAR
STARTCHAR HEBREW LETTER DALET
ENCODING 227
SWIDTH 500 0
DWIDTH 12 0
BBX 9 13 2 3
BITMAP
8000
ff80
ff80
0300
0300
0300
0300
0300
0300
0300
0300
0300
0300
ENDCHAR
STARTCHAR HEBREW LETTER HE
ENCODING 228
SWIDTH 500 0
DWIDTH 12 0
BBX 9 13 2 3
BITMAP
8000
ff80
ff80
0180
0180
c180
c180
c180
c180
c180
c180
c180
c180
ENDCHAR
STARTCHAR HEBREW LETTER WAW
ENCODING 229
SWIDTH 500 0
DWIDTH 12 0
BBX 5 13 3 3
BITMAP
80
f0
f8
18
18
18
18
18
18
18
18
18
18
ENDCHAR
STARTCHAR HEBREW LETTER ZAIN
ENCODING 230
SWIDTH 500 0
DWIDTH 12 0
BBX 6 13 4 3
BITMAP
80
fc
fc
30
30
30
30
30
30
30
30
30
30
ENDCHAR
STARTCHAR HEBREW LETTER CHET
ENCODING 231
SWIDTH 500 0
DWIDTH 12 0
BBX 9 13 2 3
BITMAP
8000
ff80
ff80
6180
6180
c180
c180
c180
c180
c180
c180
c180
c180
ENDCHAR
STARTCHAR HEBREW LETTER TET
ENCODING 232
SWIDTH 500 0
DWIDTH 12 0
BBX 9 12 2 3
BITMAP
e300
e780
6d80
c180
c180
c180
c180
c180
c180
e380
7f00
3e00
ENDCHAR
STARTCHAR HEBREW LETTER YOD
ENCODING 233
SWIDTH 500 0
DWIDTH 12 0
BBX 4 6 4 9
BITMAP
e0
f0
30
30
30
30
ENDCHAR
STARTCHAR HEBREW LETTER TERMINAL KAPH
ENCODING 234
SWIDTH 500 0
DWIDTH 12 0
BBX 9 16 2 0
BITMAP
8000
ff00
ff80
0180
0180
0180
0180
0180
0180
0180
0180
0180
0180
0180
0180
0180
ENDCHAR
STARTCHAR HEBREW LETTER KAPH
ENCODING 235
SWIDTH 500 0
DWIDTH 12 0
BBX 9 12 2 3
BITMAP
ff00
ff80
0180
0180
0180
0180
0180
0180
0180
0180
ff80
ff00
ENDCHAR
STARTCHAR HEBREW LETTER LAMED
ENCODING 236
SWIDTH 500 0
DWIDTH 12 0
BBX 9 17 2 3
BITMAP
6000
6000
6000
6000
c000
ff00
ff80
0180
0180
0180
0380
0700
0e00
0c00
1800
1800
1800
ENDCHAR
STARTCHAR HEBREW LETTER TERMINAL MEM
ENCODING 237
SWIDTH 500 0
DWIDTH 12 0
BBX 9 13 2 3
BITMAP
8000
ff00
ff80
3180
e180
c180
c180
c180
c180
c180
e180
ff80
ff80
ENDCHAR
STARTCHAR HEBREW LETTER MEM
ENCODING 238
SWIDTH 500 0
DWIDTH 12 0
BBX 9 12 2 3
BITMAP
ce00
df00
7b80
3180
6180
6180
c180
c180
c180
c180
cf00
ce00
ENDCHAR
STARTCHAR HEBREW LETTER TERMINAL NUN
ENCODING 239
SWIDTH 500 0
DWIDTH 12 0
BBX 5 16 4 0
BITMAP
80
f8
f8
30
30
30
30
30
30
30
30
30
30
30
30
30
ENDCHAR
STARTCHAR HEBREW LETTER NUN
ENCODING 240
SWIDTH 500 0
DWIDTH 12 0
BBX 5 13 3 3
BITMAP
40
78
78
18
18
18
18
18
18
18
18
f8
f8
ENDCHAR
STARTCHAR HEBREW LETTER SAMECH
ENCODING 241
SWIDTH 500 0
DWIDTH 12 0
BBX 9 12 2 3
BITMAP
fe00
ff00
3b80
7180
e180
c180
c180
c180
c180
e380
7f00
3e00
ENDCHAR
STARTCHAR HEBREW LETTER AYIN
ENCODING 242
SWIDTH 500 0
DWIDTH 12 0
BBX 9 12 2 3
BITMAP
e380
f380
3180
3180
3180
3180
3300
3300
3300
3600
fe00
fc00
ENDCHAR
STARTCHAR HEBREW LETTER TERMINAL PE
ENCODING 243
SWIDTH 500 0
DWIDTH 12 0
BBX 9 15 2 0
BITMAP
ff00
ff80
6180
6180
6180
f180
f180
0180
0180
0180
0180
0180
0180
0180
0180
ENDCHAR
STARTCHAR HEBREW LETTER PE
ENCODING 244
SWIDTH 500 0
DWIDTH 12 0
BBX 9 12 2 3
BITMAP
ff00
ff80
6180
6180
6180
f180
f180
0180
0180
0180
ff80
ff00
ENDCHAR
STARTCHAR HEBREW LETTER TERMINAL ZADE
ENCODING 245
SWIDTH 500 0
DWIDTH 12 0
BBX 9 14 2 1
BITMAP
f380
f380
3180
3300
3600
3c00
3000
3000
3000
3000
3000
3000
3000
3000
ENDCHAR
STARTCHAR HEBREW LETTER ZADE
ENCODING 246
SWIDTH 500 0
DWIDTH 12 0
BBX 9 12 2 3
BITMAP
f780
f780
2180
3100
1b00
0e00
0600
0300
0180
0180
ff80
ff80
ENDCHAR
STARTCHAR HEBREW LETTER QOPH
ENCODING 247
SWIDTH 500 0
DWIDTH 12 0
BBX 9 16 2 0
BITMAP
8000
ff00
ff80
0180
0180
6180
6180
6300
6600
6c00
6c00
6000
6000
6000
6000
6000
ENDCHAR
STARTCHAR HEBREW LETTER RESH
ENCODING 248
SWIDTH 500 0
DWIDTH 12 0
BBX 9 13 2 3
BITMAP
8000
ff00
ff80
0180
0180
0180
0180
0180
0180
0180
0180
0180
0180
ENDCHAR
STARTCHAR HEBREW LETTER SHIN
ENCODING 249
SWIDTH 500 0
DWIDTH 12 0
BBX 10 12 1 3
BITMAP
ccc0
ccc0
ccc0
ccc0
ccc0
ccc0
ccc0
d8c0
f980
e380
ff00
fc00
ENDCHAR
STARTCHAR HEBREW LETTER TAW
ENCODING 250
SWIDTH 500 0
DWIDTH 12 0
BBX 10 13 1 3
BITMAP
4000
7f80
7fc0
30c0
30c0
30c0
30c0
30c0
30c0
30c0
30c0
f8c0
f8c0
ENDCHAR
ENDFONT
